<svg width="112" height="147" viewBox="0 0 112 147" fill="none" xmlns="http://www.w3.org/2000/svg">
<path d="M0 18.6076C0 8.3309 7.86574 0 17.5686 0H94.4314C104.134 0 112 8.3309 112 18.6076V128.392C112 138.669 104.134 147 94.4314 147H17.5686C7.86574 147 0 138.669 0 128.392V18.6076Z" fill="#F5F5F5"/>
<path d="M42.3147 62.832H47.6907V66H38.2107V49.152H42.3147V62.832ZM73.8141 49.152V66H69.7101V55.896L65.9421 66H62.6301L58.8381 55.872V66H54.7341V49.152H59.5821L64.3101 60.816L68.9901 49.152H73.8141ZM28.9579 92.51C28.9579 91.83 29.1146 91.22 29.4279 90.68C29.7479 90.14 30.1779 89.72 30.7179 89.42C31.2646 89.1133 31.8612 88.96 32.5079 88.96C33.2479 88.96 33.9046 89.1433 34.4779 89.51C35.0579 89.87 35.4779 90.3833 35.7379 91.05H34.3679C34.1879 90.6833 33.9379 90.41 33.6179 90.23C33.2979 90.05 32.9279 89.96 32.5079 89.96C32.0479 89.96 31.6379 90.0633 31.2779 90.27C30.9179 90.4767 30.6346 90.7733 30.4279 91.16C30.2279 91.5467 30.1279 91.9967 30.1279 92.51C30.1279 93.0233 30.2279 93.4733 30.4279 93.86C30.6346 94.2467 30.9179 94.5467 31.2779 94.76C31.6379 94.9667 32.0479 95.07 32.5079 95.07C32.9279 95.07 33.2979 94.98 33.6179 94.8C33.9379 94.62 34.1879 94.3467 34.3679 93.98H35.7379C35.4779 94.6467 35.0579 95.16 34.4779 95.52C33.9046 95.88 33.2479 96.06 32.5079 96.06C31.8546 96.06 31.2579 95.91 30.7179 95.61C30.1779 95.3033 29.7479 94.88 29.4279 94.34C29.1146 93.8 28.9579 93.19 28.9579 92.51ZM41.2623 94.58H38.3523L37.8523 96H36.6623L39.1523 89.04H40.4723L42.9623 96H41.7623L41.2623 94.58ZM40.9423 93.65L39.8123 90.42L38.6723 93.65H40.9423ZM45.1849 95.08H47.5349V96H44.0449V89.05H45.1849V95.08ZM51.6583 95.07C52.0783 95.07 52.4483 94.98 52.7683 94.8C53.0883 94.62 53.3383 94.3467 53.5183 93.98H54.8883C54.6483 94.5933 54.2749 95.08 53.7683 95.44C53.2616 95.7933 52.6749 95.9967 52.0083 96.05V96.48C52.3949 96.48 52.7083 96.57 52.9483 96.75C53.1883 96.9367 53.3083 97.1967 53.3083 97.53C53.3083 97.8633 53.1883 98.1267 52.9483 98.32C52.7083 98.52 52.4049 98.62 52.0383 98.62H50.7183V97.9H51.8083C51.9949 97.9 52.1349 97.8733 52.2283 97.82C52.3216 97.7667 52.3683 97.67 52.3683 97.53C52.3683 97.39 52.3216 97.2933 52.2283 97.24C52.1349 97.1867 51.9949 97.16 51.8083 97.16H51.2583V96.04C50.6716 95.98 50.1383 95.7933 49.6583 95.48C49.1783 95.1667 48.7983 94.7533 48.5183 94.24C48.2449 93.72 48.1083 93.1433 48.1083 92.51C48.1083 91.83 48.2649 91.22 48.5783 90.68C48.8983 90.14 49.3283 89.72 49.8683 89.42C50.4149 89.1133 51.0116 88.96 51.6583 88.96C52.3983 88.96 53.0549 89.1433 53.6283 89.51C54.2083 89.87 54.6283 90.3833 54.8883 91.05H53.5183C53.3383 90.6833 53.0883 90.41 52.7683 90.23C52.4483 90.05 52.0783 89.96 51.6583 89.96C51.1983 89.96 50.7883 90.0633 50.4283 90.27C50.0683 90.4767 49.7849 90.7733 49.5783 91.16C49.3783 91.5467 49.2783 91.9967 49.2783 92.51C49.2783 93.0233 49.3783 93.4733 49.5783 93.86C49.7849 94.2467 50.0683 94.5467 50.4283 94.76C50.7883 94.9667 51.1983 95.07 51.6583 95.07ZM60.4127 94.58H57.5027L57.0027 96H55.8127L58.3027 89.04H59.6227L62.1127 96H60.9127L60.4127 94.58ZM60.0927 93.65L58.9627 90.42L57.8227 93.65H60.0927ZM65.4653 89.05C66.2053 89.05 66.852 89.1933 67.4053 89.48C67.9653 89.76 68.3953 90.1667 68.6953 90.7C69.002 91.2267 69.1553 91.8433 69.1553 92.55C69.1553 93.2567 69.002 93.87 68.6953 94.39C68.3953 94.91 67.9653 95.31 67.4053 95.59C66.852 95.8633 66.2053 96 65.4653 96H63.1953V89.05H65.4653ZM65.4653 95.07C66.2786 95.07 66.902 94.85 67.3353 94.41C67.7686 93.97 67.9853 93.35 67.9853 92.55C67.9853 91.7433 67.7686 91.1133 67.3353 90.66C66.902 90.2067 66.2786 89.98 65.4653 89.98H64.3353V95.07H65.4653ZM73.4552 96.07C72.8085 96.07 72.2118 95.92 71.6652 95.62C71.1252 95.3133 70.6952 94.89 70.3752 94.35C70.0618 93.8033 69.9052 93.19 69.9052 92.51C69.9052 91.83 70.0618 91.22 70.3752 90.68C70.6952 90.14 71.1252 89.72 71.6652 89.42C72.2118 89.1133 72.8085 88.96 73.4552 88.96C74.1085 88.96 74.7052 89.1133 75.2452 89.42C75.7918 89.72 76.2218 90.14 76.5352 90.68C76.8485 91.22 77.0052 91.83 77.0052 92.51C77.0052 93.19 76.8485 93.8033 76.5352 94.35C76.2218 94.89 75.7918 95.3133 75.2452 95.62C74.7052 95.92 74.1085 96.07 73.4552 96.07ZM73.4552 95.08C73.9152 95.08 74.3252 94.9767 74.6852 94.77C75.0452 94.5567 75.3252 94.2567 75.5252 93.87C75.7318 93.4767 75.8352 93.0233 75.8352 92.51C75.8352 91.9967 75.7318 91.5467 75.5252 91.16C75.3252 90.7733 75.0452 90.4767 74.6852 90.27C74.3252 90.0633 73.9152 89.96 73.4552 89.96C72.9952 89.96 72.5852 90.0633 72.2252 90.27C71.8652 90.4767 71.5818 90.7733 71.3752 91.16C71.1752 91.5467 71.0752 91.9967 71.0752 92.51C71.0752 93.0233 71.1752 93.4767 71.3752 93.87C71.5818 94.2567 71.8652 94.5567 72.2252 94.77C72.5852 94.9767 72.9952 95.08 73.4552 95.08ZM80.417 96.07C79.9503 96.07 79.5303 95.99 79.157 95.83C78.7836 95.6633 78.4903 95.43 78.277 95.13C78.0636 94.83 77.957 94.48 77.957 94.08H79.177C79.2036 94.38 79.3203 94.6267 79.527 94.82C79.7403 95.0133 80.037 95.11 80.417 95.11C80.8103 95.11 81.117 95.0167 81.337 94.83C81.557 94.6367 81.667 94.39 81.667 94.09C81.667 93.8567 81.597 93.6667 81.457 93.52C81.3236 93.3733 81.1536 93.26 80.947 93.18C80.747 93.1 80.467 93.0133 80.107 92.92C79.6536 92.8 79.2836 92.68 78.997 92.56C78.717 92.4333 78.477 92.24 78.277 91.98C78.077 91.72 77.977 91.3733 77.977 90.94C77.977 90.54 78.077 90.19 78.277 89.89C78.477 89.59 78.757 89.36 79.117 89.2C79.477 89.04 79.8936 88.96 80.367 88.96C81.0403 88.96 81.5903 89.13 82.017 89.47C82.4503 89.8033 82.6903 90.2633 82.737 90.85H81.477C81.457 90.5967 81.337 90.38 81.117 90.2C80.897 90.02 80.607 89.93 80.247 89.93C79.9203 89.93 79.6536 90.0133 79.447 90.18C79.2403 90.3467 79.137 90.5867 79.137 90.9C79.137 91.1133 79.2003 91.29 79.327 91.43C79.4603 91.5633 79.627 91.67 79.827 91.75C80.027 91.83 80.3003 91.9167 80.647 92.01C81.107 92.1367 81.4803 92.2633 81.767 92.39C82.0603 92.5167 82.307 92.7133 82.507 92.98C82.7136 93.24 82.817 93.59 82.817 94.03C82.817 94.3833 82.7203 94.7167 82.527 95.03C82.3403 95.3433 82.0636 95.5967 81.697 95.79C81.337 95.9767 80.9103 96.07 80.417 96.07Z" fill="black"/>
</svg>
